<svg width="203" height="21" viewBox="0 0 203 21" fill="none" xmlns="http://www.w3.org/2000/svg">
<path d="M18.1173 18.6716C18.0938 18.6638 18.0713 18.6529 18.0491 18.6395L12.6416 15.2789C12.6367 15.2754 12.6314 15.2722 12.6272 15.2698C12.6213 15.2673 12.6163 15.2638 12.6104 15.2606L12.6026 15.2557L6.90373 15.3127C6.79617 15.3134 6.70055 15.2638 6.63834 15.1855C6.61549 15.1789 6.59299 15.1704 6.5712 15.1588C6.5385 15.1412 6.51003 15.1193 6.48542 15.0932C6.46363 15.0865 6.44254 15.0774 6.4225 15.0665L4.45784 13.9728C4.44518 13.9668 4.43358 13.9601 4.42093 13.9527L4.41425 13.9485L0.233943 11.6224C0.201954 11.6048 0.17348 11.5819 0.149929 11.5558C-0.00192953 11.4547 -0.0458717 11.2503 0.0525593 11.096C1.03687 9.54539 2.45736 8.25294 4.16042 7.35809C5.80238 6.49522 7.70558 6.00196 9.73243 6.00196C10.6773 6.00196 11.5955 6.10872 12.4722 6.31096C12.4781 6.27291 12.4915 6.23521 12.5115 6.19997C13.3657 4.69655 14.6062 3.44118 16.0971 2.57158C17.5377 1.73126 19.2116 1.25 20.9963 1.25C22.7711 1.25 24.4366 1.72565 25.8719 2.55751C27.3567 3.41792 28.5948 4.65957 29.4532 6.15064L29.4539 6.1531C30.3535 5.93994 31.296 5.82649 32.2676 5.82649C34.2951 5.82649 36.1983 6.31976 37.8396 7.18261C39.5431 8.07755 40.9632 9.36955 41.9474 10.9205C42.0459 11.0755 42.0019 11.2799 41.8501 11.3803C41.8265 11.4064 41.798 11.4282 41.7661 11.4469L37.5858 13.773L37.5791 13.7772C37.5675 13.785 37.5548 13.7917 37.5422 13.7973L35.5775 14.891C35.5575 14.9026 35.5357 14.9111 35.5146 14.9178C35.4903 14.9438 35.4615 14.9657 35.4288 14.9833C35.3726 15.0136 35.3121 15.0263 35.2523 15.0228L29.4276 15.0816C29.4058 15.1221 29.3745 15.158 29.3362 15.1876C29.3133 15.2144 29.2866 15.238 29.2546 15.2574L25.6146 17.4909C25.6079 17.4951 25.602 17.4993 25.5953 17.5025L23.8777 18.5557C23.8601 18.5666 23.8426 18.575 23.8239 18.5824C23.7962 18.6127 23.7635 18.6381 23.7248 18.6564C23.5585 18.7382 23.3585 18.6691 23.277 18.5025C23.0653 18.0687 22.7342 17.7027 22.3261 17.4476C21.9331 17.2017 21.467 17.0597 20.9678 17.0597C20.4571 17.0597 19.9825 17.208 19.5853 17.4628C19.1737 17.7263 18.8429 18.1051 18.6355 18.5546C18.5581 18.723 18.3592 18.797 18.1904 18.7188C18.1627 18.7061 18.1374 18.6903 18.1149 18.6709L18.1173 18.6716ZM13.2719 14.8808L14.5124 15.6521C15.161 14.5954 16.0594 13.7108 17.1246 13.0811C18.2526 12.4145 19.568 12.0315 20.9706 12.0315C22.3633 12.0315 23.6685 12.4078 24.7896 13.0652C25.8512 13.6874 26.75 14.562 27.4017 15.6083L28.6868 14.8205C27.8973 13.5528 26.8048 12.4926 25.5105 11.7429C24.1757 10.9702 22.6255 10.5273 20.9709 10.5273C19.3061 10.5273 17.7475 10.9751 16.4078 11.7562C15.1262 12.5039 14.0435 13.5559 13.2589 14.8145C13.2655 14.8356 13.2705 14.8575 13.2733 14.8811L13.2719 14.8808ZM15.0812 16.0048L16.3604 16.7997C16.8131 16.0597 17.4382 15.4358 18.1795 14.9872C18.9951 14.4929 19.9502 14.2093 20.9713 14.2093V14.211C21.9615 14.205 22.8948 14.4788 23.7019 14.9611C24.4384 15.4016 25.0701 16.015 25.5447 16.7492L26.833 15.9586C26.2399 15.0097 25.4219 14.2142 24.4528 13.6469C23.4306 13.0483 22.2414 12.7058 20.9724 12.7058C19.6924 12.7058 18.4945 13.0542 17.4683 13.6606C16.4939 14.2363 15.6735 15.0439 15.0829 16.0061L15.0812 16.0048ZM16.9298 17.1537L18.2041 17.9458C18.4611 17.5233 18.8122 17.1646 19.2288 16.8976C19.7329 16.5741 20.3308 16.3867 20.9706 16.3867C21.5987 16.3867 22.1858 16.5667 22.6832 16.8775C23.0906 17.1326 23.4375 17.4751 23.697 17.8809L24.9727 17.0981C24.5544 16.4564 24.0011 15.9202 23.3575 15.5355C22.652 15.1137 21.8371 14.8745 20.972 14.8805L20.9702 14.8822C20.0749 14.8822 19.2383 15.1306 18.5243 15.5633C17.8733 15.9572 17.3249 16.5044 16.9284 17.1534L16.9298 17.1537ZM7.2775 14.6384L12.1489 14.5894C11.9338 14.3283 11.6677 14.1028 11.3629 13.9259C10.8943 13.6532 10.3347 13.495 9.73257 13.495C9.14201 13.495 8.59366 13.6465 8.13102 13.9094C7.79601 14.0997 7.50531 14.3481 7.27682 14.6384L7.2775 14.6384ZM29.8605 14.4062L34.6388 14.3583C34.4254 14.1123 34.1649 13.9013 33.8711 13.7346C33.4081 13.4721 32.8598 13.3203 32.2695 13.3203C31.6674 13.3203 31.1088 13.4785 30.6392 13.7512C30.3376 13.9263 30.0739 14.1486 29.8598 14.4069L29.8605 14.4062ZM0.806316 11.1718L2.35271 12.0322C3.10285 10.9258 4.14333 10.0009 5.37718 9.34492C6.6581 8.66455 8.14644 8.2749 9.7336 8.2749C11.0329 8.2749 12.2666 8.53668 13.3764 9.00635C14.5111 9.48623 15.5116 10.1824 16.3151 11.0362C16.8484 10.7458 17.4112 10.5034 17.9982 10.3146C17.0533 9.22517 15.8521 8.32779 14.4766 7.6964C13.053 7.04317 11.4419 6.67428 9.73351 6.67428C7.8142 6.67428 6.01683 7.13901 4.47053 7.95148C2.97724 8.73613 1.71639 9.84492 0.805236 11.1707L0.806316 11.1718ZM2.94214 12.3606L4.49168 13.2228C5.03935 12.4406 5.77332 11.7884 6.63173 11.3226C7.54882 10.8258 8.60872 10.544 9.73432 10.55V10.5482C10.6556 10.5482 11.5327 10.7342 12.3212 11.0675C13.0998 11.3966 13.7909 11.8698 14.3519 12.4484C14.7762 12.0562 15.2346 11.7007 15.7224 11.3875C15.0001 10.6493 14.1139 10.0465 13.117 9.62474C12.0915 9.19102 10.9449 8.94861 9.73387 8.94861C8.25749 8.94861 6.8756 9.30975 5.68962 9.94043C4.57177 10.5338 3.62759 11.3666 2.94142 12.3606L2.94214 12.3606ZM5.08147 13.5511L6.6176 14.4055C6.91745 13.9679 7.32311 13.5973 7.80259 13.3252C8.36538 13.006 9.02727 12.8217 9.73423 12.8217C10.4566 12.8217 11.1309 13.0138 11.7003 13.3446C12.1302 13.5948 12.5 13.9246 12.7848 14.3111C13.1064 13.8153 13.4717 13.3496 13.8759 12.9211C13.3754 12.4035 12.7581 11.9807 12.0617 11.6862C11.3569 11.3882 10.5684 11.2215 9.73432 11.2215L9.73256 11.2197C8.72368 11.2137 7.77213 11.4671 6.94818 11.9135C6.2033 12.3166 5.56386 12.8792 5.08124 13.5501L5.08147 13.5511ZM15.1793 7.2929C15.6303 7.52263 16.063 7.78018 16.4729 8.06417C16.9432 7.34258 17.5815 6.74006 18.3317 6.31234C19.1195 5.86346 20.0299 5.60697 20.9984 5.60697V5.60873C21.9165 5.6038 22.7848 5.83845 23.55 6.25703C24.296 6.66538 24.9428 7.24776 25.4405 7.95176C25.8504 7.66284 26.2821 7.40035 26.7349 7.16463C26.1165 6.24434 25.2845 5.48082 24.3094 4.94631C23.3276 4.40829 22.1996 4.10281 20.9984 4.10281C19.7543 4.10281 18.588 4.43118 17.5815 5.00623C16.6082 5.56257 15.7825 6.34973 15.1785 7.29257L15.1793 7.2929ZM17.0135 8.46124C17.4185 8.77763 17.7981 9.12116 18.1489 9.48652C18.4108 9.0017 18.7933 8.59158 19.2559 8.29455C19.76 7.97111 20.3579 7.78366 20.9976 7.78366C21.6258 7.78366 22.2129 7.9637 22.7102 8.27446C23.1511 8.55069 23.5216 8.93016 23.787 9.38083C24.1322 9.01475 24.5051 8.67123 24.903 8.35303C24.4629 7.7241 23.8899 7.20544 23.229 6.84429C22.5604 6.47821 21.8012 6.2728 20.999 6.27773L20.9972 6.27949C20.1466 6.27949 19.3493 6.50358 18.6614 6.89573C17.9935 7.27626 17.4268 7.81493 17.0128 8.46084L17.0135 8.46124ZM18.6252 10.0186C18.653 10.0514 18.6797 10.0852 18.7075 10.118C19.4341 9.94461 20.1916 9.8537 20.9703 9.8537C21.7254 9.8537 22.4604 9.93967 23.1666 10.1028C23.2155 10.0404 23.265 9.97913 23.3153 9.91747C23.3118 9.91254 23.3093 9.90655 23.3068 9.90162C23.0952 9.46789 22.7641 9.10182 22.356 8.84675C21.963 8.60082 21.4969 8.45883 20.9977 8.45883C20.4869 8.45883 20.0124 8.60716 19.6152 8.86191C19.2036 9.12546 18.8728 9.50422 18.6653 9.95375C18.6544 9.97736 18.6411 9.99991 18.6249 10.0193L18.6252 10.0186ZM13.1246 6.4804C13.6217 6.62451 14.1032 6.79962 14.5676 7.00327C15.2337 5.93677 16.1568 5.04678 17.2504 4.42135C18.3566 3.78926 19.6358 3.42809 20.998 3.42809C22.3117 3.42809 23.5497 3.76493 24.6289 4.35578C25.7274 4.95757 26.6607 5.82393 27.3434 6.86797C27.807 6.66009 28.2883 6.48075 28.7847 6.33172C27.9909 5.01257 26.8713 3.91153 25.5376 3.13853C24.2029 2.36586 22.6527 1.92293 20.9981 1.92293C19.3333 1.92293 17.7747 2.37074 16.435 3.15188C15.0633 3.95168 13.9195 5.10169 13.1251 6.47901L13.1246 6.4804ZM35.3863 14.2304L36.9225 13.376C36.4395 12.7051 35.7994 12.1435 35.0555 11.7393C34.2316 11.2933 33.2807 11.0396 32.2711 11.0456L32.2694 11.0473C31.3867 11.0473 30.5536 11.2351 29.8161 11.5677C29.118 11.8827 28.5049 12.3281 28.0152 12.8686C28.4268 13.2988 28.7998 13.7677 29.1281 14.2677C29.423 13.8248 29.8262 13.4485 30.3039 13.1709C30.8734 12.8401 31.5479 12.648 32.27 12.648C32.9773 12.648 33.6399 12.8323 34.2017 13.1515C34.6811 13.4235 35.0868 13.7938 35.3866 14.2318L35.3863 14.2304ZM37.512 13.0476L39.0615 12.1855C38.3754 11.1912 37.4312 10.3586 36.3133 9.76526C35.1273 9.13458 33.7447 8.77345 32.2691 8.77345C30.9899 8.77345 29.782 9.04439 28.712 9.52604C27.726 9.96964 26.8549 10.5925 26.1519 11.3462C26.6433 11.6559 27.106 12.0079 27.5334 12.3987C28.0818 11.7983 28.7649 11.3043 29.5392 10.9548C30.3625 10.5827 31.2894 10.3738 32.2681 10.3738V10.3755C33.3937 10.3695 34.4535 10.6518 35.3707 11.1482C36.2291 11.6129 36.9631 12.2662 37.5107 13.0483L37.512 13.0476ZM39.6503 11.8581L41.1967 10.9977C40.2856 9.67186 39.0246 8.56306 37.5314 7.77843C35.985 6.96594 34.1878 6.50123 32.2684 6.50123C30.4965 6.50123 28.8291 6.8969 27.3675 7.59731C25.9952 8.25406 24.8024 9.17929 23.8734 10.2955C24.4604 10.4791 25.025 10.7165 25.5589 11.0026C26.3407 10.132 27.3218 9.41641 28.4382 8.914C29.5948 8.39361 30.895 8.10081 32.2681 8.10081C33.8556 8.10081 35.3439 8.4905 36.6245 9.17083C37.8584 9.82653 38.8988 10.7517 39.649 11.8581L39.6503 11.8581Z" fill="#FC4308"/>
<path d="M60.36 17.16C59.2933 17.16 58.3067 16.9867 57.4 16.64C56.5067 16.28 55.7267 15.78 55.06 15.14C54.4067 14.4867 53.8933 13.7267 53.52 12.86C53.1467 11.9933 52.96 11.04 52.96 10C52.96 8.96 53.1467 8.00667 53.52 7.14C53.8933 6.27333 54.4133 5.52 55.08 4.88C55.7467 4.22667 56.5267 3.72667 57.42 3.38C58.3267 3.02 59.3133 2.84 60.38 2.84C61.46 2.84 62.4533 3.02667 63.36 3.4C64.28 3.76 65.06 4.3 65.7 5.02L64.4 6.28C63.8667 5.72 63.2667 5.30667 62.6 5.04C61.9333 4.76 61.22 4.62 60.46 4.62C59.6733 4.62 58.94 4.75333 58.26 5.02C57.5933 5.28667 57.0133 5.66 56.52 6.14C56.0267 6.62 55.64 7.19333 55.36 7.86C55.0933 8.51333 54.96 9.22667 54.96 10C54.96 10.7733 55.0933 11.4933 55.36 12.16C55.64 12.8133 56.0267 13.38 56.52 13.86C57.0133 14.34 57.5933 14.7133 58.26 14.98C58.94 15.2467 59.6733 15.38 60.46 15.38C61.22 15.38 61.9333 15.2467 62.6 14.98C63.2667 14.7 63.8667 14.2733 64.4 13.7L65.7 14.96C65.06 15.68 64.28 16.2267 63.36 16.6C62.4533 16.9733 61.4533 17.16 60.36 17.16ZM74.4696 17V14.76L74.3696 14.34V10.52C74.3696 9.70667 74.1296 9.08 73.6496 8.64C73.1829 8.18667 72.4762 7.96 71.5296 7.96C70.9029 7.96 70.2896 8.06667 69.6896 8.28C69.0896 8.48 68.5829 8.75333 68.1696 9.1L67.3696 7.66C67.9162 7.22 68.5696 6.88667 69.3296 6.66C70.1029 6.42 70.9096 6.3 71.7496 6.3C73.2029 6.3 74.3229 6.65333 75.1096 7.36C75.8962 8.06667 76.2896 9.14667 76.2896 10.6V17H74.4696ZM70.9896 17.12C70.2029 17.12 69.5096 16.9867 68.9096 16.72C68.3229 16.4533 67.8696 16.0867 67.5496 15.62C67.2296 15.14 67.0696 14.6 67.0696 14C67.0696 13.4267 67.2029 12.9067 67.4696 12.44C67.7496 11.9733 68.1962 11.6 68.8096 11.32C69.4362 11.04 70.2762 10.9 71.3296 10.9H74.6896V12.28H71.4096C70.4496 12.28 69.8029 12.44 69.4696 12.76C69.1362 13.08 68.9696 13.4667 68.9696 13.92C68.9696 14.44 69.1762 14.86 69.5896 15.18C70.0029 15.4867 70.5762 15.64 71.3096 15.64C72.0296 15.64 72.6562 15.48 73.1896 15.16C73.7362 14.84 74.1296 14.3733 74.3696 13.76L74.7496 15.08C74.4962 15.7067 74.0496 16.2067 73.4096 16.58C72.7696 16.94 71.9629 17.12 70.9896 17.12ZM85.2159 17.12C84.3359 17.12 83.5292 16.92 82.7959 16.52C82.0759 16.1067 81.4959 15.5 81.0559 14.7C80.6292 13.9 80.4159 12.9 80.4159 11.7C80.4159 10.5 80.6225 9.5 81.0359 8.7C81.4625 7.9 82.0359 7.3 82.7559 6.9C83.4892 6.5 84.3092 6.3 85.2159 6.3C86.2559 6.3 87.1759 6.52667 87.9759 6.98C88.7759 7.43333 89.4092 8.06667 89.8759 8.88C90.3425 9.68 90.5759 10.62 90.5759 11.7C90.5759 12.78 90.3425 13.7267 89.8759 14.54C89.4092 15.3533 88.7759 15.9867 87.9759 16.44C87.1759 16.8933 86.2559 17.12 85.2159 17.12ZM79.5959 20.88V6.4H81.4359V9.26L81.3159 11.72L81.5159 14.18V20.88H79.5959ZM85.0559 15.44C85.7359 15.44 86.3425 15.2867 86.8759 14.98C87.4225 14.6733 87.8492 14.24 88.1559 13.68C88.4759 13.1067 88.6359 12.4467 88.6359 11.7C88.6359 10.94 88.4759 10.2867 88.1559 9.74C87.8492 9.18 87.4225 8.74667 86.8759 8.44C86.3425 8.13333 85.7359 7.98 85.0559 7.98C84.3892 7.98 83.7825 8.13333 83.2359 8.44C82.7025 8.74667 82.2759 9.18 81.9559 9.74C81.6492 10.2867 81.4959 10.94 81.4959 11.7C81.4959 12.4467 81.6492 13.1067 81.9559 13.68C82.2759 14.24 82.7025 14.6733 83.2359 14.98C83.7825 15.2867 84.3892 15.44 85.0559 15.44ZM96.6218 17.12C95.5552 17.12 94.7285 16.8333 94.1418 16.26C93.5552 15.6867 93.2618 14.8667 93.2618 13.8V4.08H95.1818V13.72C95.1818 14.2933 95.3218 14.7333 95.6018 15.04C95.8952 15.3467 96.3085 15.5 96.8418 15.5C97.4418 15.5 97.9418 15.3333 98.3418 15L98.9418 16.38C98.6485 16.6333 98.2952 16.82 97.8818 16.94C97.4818 17.06 97.0618 17.12 96.6218 17.12ZM91.4618 7.98V6.4H98.2218V7.98H91.4618ZM105.476 17.12C104.57 17.12 103.77 16.9533 103.076 16.62C102.396 16.2867 101.863 15.78 101.476 15.1C101.103 14.4067 100.916 13.54 100.916 12.5V6.4H102.836V12.28C102.836 13.32 103.083 14.1 103.576 14.62C104.083 15.14 104.79 15.4 105.696 15.4C106.363 15.4 106.943 15.2667 107.436 15C107.93 14.72 108.31 14.32 108.576 13.8C108.843 13.2667 108.976 12.6267 108.976 11.88V6.4H110.896V17H109.076V14.14L109.376 14.9C109.03 15.6067 108.51 16.1533 107.816 16.54C107.123 16.9267 106.343 17.12 105.476 17.12ZM114.305 17V6.4H116.145V9.28L115.965 8.56C116.258 7.82667 116.751 7.26667 117.445 6.88C118.138 6.49333 118.991 6.3 120.005 6.3V8.16C119.925 8.14667 119.845 8.14 119.765 8.14C119.698 8.14 119.631 8.14 119.565 8.14C118.538 8.14 117.725 8.44667 117.125 9.06C116.525 9.67333 116.225 10.56 116.225 11.72V17H114.305ZM126.746 17.12C125.613 17.12 124.613 16.8867 123.746 16.42C122.893 15.9533 122.226 15.3133 121.746 14.5C121.28 13.6867 121.046 12.7533 121.046 11.7C121.046 10.6467 121.273 9.71333 121.726 8.9C122.193 8.08667 122.826 7.45333 123.626 7C124.44 6.53333 125.353 6.3 126.366 6.3C127.393 6.3 128.3 6.52667 129.086 6.98C129.873 7.43333 130.486 8.07333 130.926 8.9C131.38 9.71333 131.606 10.6667 131.606 11.76C131.606 11.84 131.6 11.9333 131.586 12.04C131.586 12.1467 131.58 12.2467 131.566 12.34H122.546V10.96H130.566L129.786 11.44C129.8 10.76 129.66 10.1533 129.366 9.62C129.073 9.08667 128.666 8.67333 128.146 8.38C127.64 8.07333 127.046 7.92 126.366 7.92C125.7 7.92 125.106 8.07333 124.586 8.38C124.066 8.67333 123.66 9.09333 123.366 9.64C123.073 10.1733 122.926 10.7867 122.926 11.48V11.8C122.926 12.5067 123.086 13.14 123.406 13.7C123.74 14.2467 124.2 14.6733 124.786 14.98C125.373 15.2867 126.046 15.44 126.806 15.44C127.433 15.44 128 15.3333 128.506 15.12C129.026 14.9067 129.48 14.5867 129.866 14.16L130.926 15.4C130.446 15.96 129.846 16.3867 129.126 16.68C128.42 16.9733 127.626 17.12 126.746 17.12ZM143.51 17.16C142.443 17.16 141.423 17 140.45 16.68C139.477 16.3467 138.71 15.92 138.15 15.4L138.89 13.84C139.423 14.3067 140.103 14.6933 140.93 15C141.757 15.3067 142.617 15.46 143.51 15.46C144.323 15.46 144.983 15.3667 145.49 15.18C145.997 14.9933 146.37 14.74 146.61 14.42C146.85 14.0867 146.97 13.7133 146.97 13.3C146.97 12.82 146.81 12.4333 146.49 12.14C146.183 11.8467 145.777 11.6133 145.27 11.44C144.777 11.2533 144.23 11.0933 143.63 10.96C143.03 10.8267 142.423 10.6733 141.81 10.5C141.21 10.3133 140.657 10.08 140.15 9.8C139.657 9.52 139.257 9.14667 138.95 8.68C138.643 8.2 138.49 7.58667 138.49 6.84C138.49 6.12 138.677 5.46 139.05 4.86C139.437 4.24667 140.023 3.76 140.81 3.4C141.61 3.02667 142.623 2.84 143.85 2.84C144.663 2.84 145.47 2.94667 146.27 3.16C147.07 3.37333 147.763 3.68 148.35 4.08L147.69 5.68C147.09 5.28 146.457 4.99333 145.79 4.82C145.123 4.63333 144.477 4.54 143.85 4.54C143.063 4.54 142.417 4.64 141.91 4.84C141.403 5.04 141.03 5.30667 140.79 5.64C140.563 5.97333 140.45 6.34667 140.45 6.76C140.45 7.25333 140.603 7.64667 140.91 7.94C141.23 8.23333 141.637 8.46667 142.13 8.64C142.637 8.81333 143.19 8.97333 143.79 9.12C144.39 9.25333 144.99 9.40667 145.59 9.58C146.203 9.75333 146.757 9.98 147.25 10.26C147.757 10.54 148.163 10.9133 148.47 11.38C148.777 11.8467 148.93 12.4467 148.93 13.18C148.93 13.8867 148.737 14.5467 148.35 15.16C147.963 15.76 147.363 16.2467 146.55 16.62C145.75 16.98 144.737 17.16 143.51 17.16ZM154.965 17.12C153.898 17.12 153.072 16.8333 152.485 16.26C151.898 15.6867 151.605 14.8667 151.605 13.8V4.08H153.525V13.72C153.525 14.2933 153.665 14.7333 153.945 15.04C154.238 15.3467 154.652 15.5 155.185 15.5C155.785 15.5 156.285 15.3333 156.685 15L157.285 16.38C156.992 16.6333 156.638 16.82 156.225 16.94C155.825 17.06 155.405 17.12 154.965 17.12ZM149.805 7.98V6.4H156.565V7.98H149.805ZM163.819 17.12C162.913 17.12 162.113 16.9533 161.419 16.62C160.739 16.2867 160.206 15.78 159.819 15.1C159.446 14.4067 159.259 13.54 159.259 12.5V6.4H161.179V12.28C161.179 13.32 161.426 14.1 161.919 14.62C162.426 15.14 163.133 15.4 164.039 15.4C164.706 15.4 165.286 15.2667 165.779 15C166.273 14.72 166.653 14.32 166.919 13.8C167.186 13.2667 167.319 12.6267 167.319 11.88V6.4H169.239V17H167.419V14.14L167.719 14.9C167.373 15.6067 166.853 16.1533 166.159 16.54C165.466 16.9267 164.686 17.12 163.819 17.12ZM177.028 17.12C176.001 17.12 175.081 16.8933 174.268 16.44C173.468 15.9867 172.834 15.3533 172.368 14.54C171.901 13.7267 171.668 12.78 171.668 11.7C171.668 10.62 171.901 9.68 172.368 8.88C172.834 8.06667 173.468 7.43333 174.268 6.98C175.081 6.52667 176.001 6.3 177.028 6.3C177.921 6.3 178.728 6.5 179.448 6.9C180.168 7.3 180.741 7.9 181.168 8.7C181.608 9.5 181.828 10.5 181.828 11.7C181.828 12.9 181.614 13.9 181.188 14.7C180.774 15.5 180.208 16.1067 179.488 16.52C178.768 16.92 177.948 17.12 177.028 17.12ZM177.188 15.44C177.854 15.44 178.454 15.2867 178.988 14.98C179.534 14.6733 179.961 14.24 180.268 13.68C180.588 13.1067 180.748 12.4467 180.748 11.7C180.748 10.94 180.588 10.2867 180.268 9.74C179.961 9.18 179.534 8.74667 178.988 8.44C178.454 8.13333 177.854 7.98 177.188 7.98C176.508 7.98 175.901 8.13333 175.368 8.44C174.834 8.74667 174.408 9.18 174.088 9.74C173.768 10.2867 173.608 10.94 173.608 11.7C173.608 12.4467 173.768 13.1067 174.088 13.68C174.408 14.24 174.834 14.6733 175.368 14.98C175.901 15.2867 176.508 15.44 177.188 15.44ZM180.808 17V14.14L180.928 11.68L180.728 9.22V2.16H182.648V17H180.808ZM186.034 17V6.4H187.954V17H186.034ZM186.994 4.36C186.62 4.36 186.307 4.24 186.054 4C185.814 3.76 185.694 3.46667 185.694 3.12C185.694 2.76 185.814 2.46 186.054 2.22C186.307 1.98 186.62 1.86 186.994 1.86C187.367 1.86 187.674 1.98 187.914 2.22C188.167 2.44667 188.294 2.73333 188.294 3.08C188.294 3.44 188.174 3.74667 187.934 4C187.694 4.24 187.38 4.36 186.994 4.36ZM195.913 17.12C194.846 17.12 193.899 16.8867 193.073 16.42C192.246 15.9533 191.593 15.3133 191.113 14.5C190.633 13.6733 190.393 12.74 190.393 11.7C190.393 10.6467 190.633 9.71333 191.113 8.9C191.593 8.08667 192.246 7.45333 193.073 7C193.899 6.53333 194.846 6.3 195.913 6.3C196.966 6.3 197.906 6.53333 198.733 7C199.573 7.45333 200.226 8.08667 200.693 8.9C201.173 9.7 201.413 10.6333 201.413 11.7C201.413 12.7533 201.173 13.6867 200.693 14.5C200.226 15.3133 199.573 15.9533 198.733 16.42C197.906 16.8867 196.966 17.12 195.913 17.12ZM195.913 15.44C196.593 15.44 197.199 15.2867 197.733 14.98C198.279 14.6733 198.706 14.24 199.013 13.68C199.319 13.1067 199.473 12.4467 199.473 11.7C199.473 10.94 199.319 10.2867 199.013 9.74C198.706 9.18 198.279 8.74667 197.733 8.44C197.199 8.13333 196.593 7.98 195.913 7.98C195.233 7.98 194.626 8.13333 194.093 8.44C193.559 8.74667 193.133 9.18 192.813 9.74C192.493 10.2867 192.333 10.94 192.333 11.7C192.333 12.4467 192.493 13.1067 192.813 13.68C193.133 14.24 193.559 14.6733 194.093 14.98C194.626 15.2867 195.233 15.44 195.913 15.44Z" fill="#FC4308"/>
</svg>
